#N canvas 780 191 933 662 12;
#X obj 87 112 *;
#X obj 144 113 +;
#X obj 196 113 -;
#X obj 250 112 /;
#X floatatom 30 35 5 0 0 0 - - - 0;
#X floatatom 299 35 5 0 0 0 - - - 0;
#X floatatom 81 146 5 0 0 0 - - - 0;
#X floatatom 135 146 5 0 0 0 - - - 0;
#X floatatom 188 146 5 0 0 0 - - - 0;
#X floatatom 241 146 5 0 0 0 - - - 0;
#X obj 159 202 print;
#X obj 164 31 bng 19 250 50 0 empty empty empty 0 -10 0 12 #fcfcfc #000000 #000000;
#X text 24 247 resultados de operações são mostrados após mudança do operando da esquerda \; o uso do bang acima faz com que uma alteração no operando direito também modifique o resultado que é mostrado!;
#X connect 0 0 6 0;
#X connect 1 0 7 0;
#X connect 2 0 8 0;
#X connect 3 0 9 0;
#X connect 4 0 0 0;
#X connect 4 0 1 0;
#X connect 4 0 2 0;
#X connect 4 0 3 0;
#X connect 5 0 0 1;
#X connect 5 0 1 1;
#X connect 5 0 2 1;
#X connect 5 0 3 1;
#X connect 5 0 11 0;
#X connect 6 0 10 0;
#X connect 7 0 10 0;
#X connect 8 0 10 0;
#X connect 9 0 10 0;
#X connect 11 0 4 0;
