#N canvas 825 150 951 607 12;
#X obj 98 198 dac~;
#X floatatom 98 16 5 0 0 0 - - - 0;
#X msg 165 95 1;
#X msg 208 95 0;
#X obj 99 153 *~;
#X obj 98 54 osc~ 880;
#X obj 171 152 *;
#X text 137 152 !=;
#X msg 255 93 2;
#X msg 304 95 5;
#X msg 347 97 50;
#X connect 1 0 5 0;
#X connect 2 0 4 1;
#X connect 3 0 4 1;
#X connect 4 0 0 0;
#X connect 4 0 0 1;
#X connect 5 0 4 0;
#X connect 8 0 4 1;
#X connect 9 0 4 1;
#X connect 10 0 4 1;
#X coords 0 0 1 1 85 60 0;
