#N canvas 837 267 922 542 12;
#X floatatom 26 58 5 0 0 0 - - - 0;
#X floatatom 72 57 5 0 0 0 - - - 0;
#X floatatom 25 132 5 0 0 0 - - - 0;
#X obj 27 97 *;
#X text 31 14 operações;
#X text 349 15 usando bang;
#X text 178 14 usando message;
#X obj 184 96 * 5;
#X msg 213 53 10;
#X obj 250 96 * 2;
#X floatatom 178 133 5 0 0 0 - - - 0;
#X floatatom 246 132 5 0 0 0 - - - 0;
#X obj 385 51 bng 19 250 50 0 empty empty empty 0 -10 0 12 #fcfcfc #000000 #000000;
#X obj 346 136 * 5;
#X obj 412 136 * 2;
#X floatatom 340 173 5 0 0 0 - - - 0;
#X floatatom 408 172 5 0 0 0 - - - 0;
#X msg 343 92 10;
#X msg 411 93 10;
#X connect 0 0 3 0;
#X connect 1 0 3 1;
#X connect 3 0 2 0;
#X connect 7 0 10 0;
#X connect 8 0 7 0;
#X connect 8 0 9 0;
#X connect 9 0 11 0;
#X connect 12 0 17 0;
#X connect 12 0 18 0;
#X connect 13 0 15 0;
#X connect 14 0 16 0;
#X connect 17 0 13 0;
#X connect 18 0 14 0;
