#N canvas -8 0 1352 956 12;
#X obj 84 21 bng 19 250 50 0 empty empty empty 0 -10 0 12 #fcfcfc #000000 #000000;
#X floatatom 24 107 5 0 0 0 - - - 0;
#X floatatom 125 107 5 0 0 0 - - - 0;
#X obj 31 80 * 5;
#X obj 128 80 * 6;
#X msg 31 53 3;
#X msg 127 53 4;
#X obj 80 140 +;
#X floatatom 76 175 5 0 0 0 - - - 0;
#X floatatom 220 130 5 0 0 0 - - - 0;
#X floatatom 321 130 5 0 0 0 - - - 0;
#X obj 227 103 * 5;
#X obj 324 103 * 6;
#X msg 227 76 3;
#X msg 323 76 4;
#X obj 281 9 bng 19 250 50 0 empty empty empty 0 -10 0 12 #fcfcfc #000000 #000000;
#X obj 235 40 trigger bang bang;
#X floatatom 274 195 5 0 0 0 - - - 0;
#X obj 278 165 +;
#X obj 531 15 bng 19 250 50 0 empty empty empty 0 -10 0 12 #fcfcfc #000000 #000000;
#X obj 578 108 print 1;
#X obj 514 108 print 2;
#X obj 449 108 print 3;
#X obj 454 61 trigger bang bang bang;
#X obj 447 286 bng 19 250 50 0 empty empty empty 0 -10 0 12 #fcfcfc #000000 #000000;
#X msg 390 285 1 2 3;
#X msg 479 286 puredata;
#X msg 494 314 purodesespero;
#X text 17 224 o trigger garante alteração do direito e depois do esquerdo;
#X text 17 333 trigger: recebe parâmetros \; retorna os parâmetros da direita para a esquerda;
#X obj 403 345 trigger bang anything bang;
#X obj 564 393 print 1;
#X obj 496 391 print 2;
#X obj 417 392 print 3;
#X connect 0 0 5 0;
#X connect 0 0 6 0;
#X connect 1 0 7 0;
#X connect 2 0 7 1;
#X connect 3 0 1 0;
#X connect 4 0 2 0;
#X connect 5 0 3 0;
#X connect 6 0 4 0;
#X connect 7 0 8 0;
#X connect 9 0 18 0;
#X connect 10 0 18 1;
#X connect 11 0 9 0;
#X connect 12 0 10 0;
#X connect 13 0 11 0;
#X connect 14 0 12 0;
#X connect 15 0 16 0;
#X connect 16 0 13 0;
#X connect 16 1 14 0;
#X connect 18 0 17 0;
#X connect 19 0 23 0;
#X connect 23 0 22 0;
#X connect 23 1 21 0;
#X connect 23 2 20 0;
#X connect 24 0 30 0;
#X connect 25 0 30 0;
#X connect 26 0 30 0;
#X connect 27 0 30 0;
#X connect 30 0 33 0;
#X connect 30 1 32 0;
#X connect 30 2 31 0;
