#N canvas 350 75 1290 845 12;
#X obj 405 172 adc~;
#X obj 385 216 writesf~ 2;
#X msg 235 190 start;
#X msg 235 215 stop;
#X obj 99 194 bng 19 250 50 0 empty empty empty 0 -10 0 12 #fcfcfc #000000 #000000;
#X obj 140 178 delay 1000;
#X obj 140 205 delay 5000;
#X obj 478 167 osc~ 432;
#X text 137 14 adc: captura áudio \; writesf: grava em arquivo \; abre o arquivo a partir da mensagem \; inicia e para a gravação com as mensagens. usa um bang para ativar automaticamente a abertura do arquivo \, começo e fim da gravação (após 5 seg) \; Grava junto à gravação um sinal definido \;;
#X obj 395 305 readsf~;
#X obj 398 342 dac~;
#X msg 479 325 bang;
#X msg 257 320 start;
#X msg 257 345 stop;
#X obj 121 324 bng 19 250 50 0 empty empty empty 0 -10 0 12 #fcfcfc #000000 #000000;
#X obj 162 308 delay 1000;
#X obj 162 335 delay 5000;
#X msg 235 165 open rec.wav;
#X msg 257 295 open rec.wav;
#X connect 0 0 1 0;
#X connect 0 1 1 1;
#X connect 2 0 1 0;
#X connect 3 0 1 0;
#X connect 4 0 5 0;
#X connect 4 0 6 0;
#X connect 5 0 17 0;
#X connect 5 0 2 0;
#X connect 6 0 3 0;
#X connect 7 0 1 0;
#X connect 7 0 1 1;
#X connect 9 0 10 0;
#X connect 9 1 11 0;
#X connect 12 0 9 0;
#X connect 13 0 9 0;
#X connect 14 0 15 0;
#X connect 14 0 16 0;
#X connect 15 0 18 0;
#X connect 15 0 12 0;
#X connect 16 0 13 0;
#X connect 17 0 1 0;
#X connect 18 0 9 0;
