#N canvas 23 10 1920 966 12;
#X obj 229 182 qlist;
#X floatatom 227 235 5 0 0 0 - - - 0;
#X msg 150 77 read test2.txt;
#X obj 227 211 r note;
#X obj 227 266 osc~;
#X obj 227 317 dac~;
#X obj 227 291 *~;
#X obj 322 179 vsl 19 162 0 1 0 0 empty empty empty 0 -9 0 12 #fcfcfc #000000 #000000 0 1;
#X msg 150 134 tempo \$1 \, rewind \, bang;
#X msg 183 106 1;
#X msg 250 106 2;
#X msg 150 106 0.5;
#X msg 216 106 1.5;
#X msg 318 106 3;
#X msg 284 106 2.5;
#X msg 353 106 3.5;
#X msg 389 106 4;
#X msg 423 106 4.5;
#X text 487 51 seleção da mensagem 'read' \; seleção do tempo escolhido pelo usuário (0.5 \, 1 \, 2 \, etc) \; a melodia é tocada!;
#X connect 1 0 4 0;
#X connect 2 0 0 0;
#X connect 3 0 1 0;
#X connect 4 0 6 0;
#X connect 6 0 5 0;
#X connect 7 0 6 1;
#X connect 8 0 0 0;
#X connect 9 0 8 0;
#X connect 10 0 8 0;
#X connect 11 0 8 0;
#X connect 12 0 8 0;
#X connect 13 0 8 0;
#X connect 14 0 8 0;
