#N canvas 2081 1274 2400 1236 12;
#X obj 24 280 stripnote;
#X obj 24 234 cyclone/seq;
#X obj 24 257 cyclone/midiparse;
#X floatatom 24 304 5 0 0 0 - - - 0;
#X obj 24 327 - 69;
#X obj 24 351 / 12;
#X obj 24 375 t b f;
#X msg 24 399 2;
#X obj 38 429 pow;
#X obj 38 453 * 440;
#X floatatom 38 477 5 0 0 0 - - - 0;
#X obj 24 92 openpanel;
#X msg 24 115 read \$1;
#X obj 24 72 bng 15 250 50 0 empty empty empty 17 7 0 10 #fcfcfc #000000 #000000;
#X msg 24 183 start \$1;
#X floatatom 24 160 5 0 0 0 - - - 0;
#X msg 95 183 stop;
#X obj 27 137 hsl 162 19 512 5120 0 0 empty empty empty -2 -10 0 12 #fcfcfc #000000 #000000 0 1;
#X msg 24 206 continue;
#X msg 95 206 pause;
#X text 134 183 <- iniciar \, parar;
#X text 142 206 <- continuar \, pausar;
#X text 45 68 <- escolha do arquivo .mid;
#X text 64 161 invervalo [512 \, 5120];
#X text 199 136 <- andamento;
#X text 81 478 nota - frequência;
#X text 65 303 nota - MIDI;
#X obj 38 500 send note;
#X obj 683 472 osc~;
#X obj 746 472 phasor~;
#X obj 683 508 *~;
#X obj 746 508 *~;
#X obj 640 343 vsl 19 162 0 0.025 0 0 empty empty empty 0 -9 0 12 #fcfcfc #000000 #000000 0 1;
#X obj 817 343 vsl 19 162 0 0.025 0 0 empty empty empty 0 -9 0 12 #fcfcfc #000000 #000000 0 1;
#X obj 710 274 bng 19 250 50 0 empty empty empty 0 -10 0 12 #fcfcfc #000000 #000000;
#X obj 758 274 bng 19 250 50 0 empty empty empty 0 -10 0 12 #fcfcfc #000000 #000000;
#X msg 708 303 0;
#X msg 800 303 0;
#X obj 706 247 select 1 2;
#X msg 713 222 1;
#X msg 749 222 2;
#X floatatom 697 440 5 0 0 0 - - - 0;
#X obj 697 416 receive note;
#X msg 659 303 0.025;
#X msg 749 303 0.025;
#X obj 720 556 dac~;
#X text 37 519 envia note para parte \; de reprodução do áudio.;
#X text 688 350 recebe note \; da conversão \; MIDI para \; frequência.;
#X text 851 321 Código: mensagens 1 e 2 acionam \; [select] que irá alterar os valores \; dos objetos relativos aos volumes \; de [osc] e [phasor] \, permitindo ao \; usuário alterar o timbre no momento \; da reprodução do áudio selecionado \; [receive note] recebe o float relativo \; à frequência atual \, cujo valor é levado \; a [osc] e [phasor] e depois para \; o [dac~] \, em que é possível \, então \, \; ouvir o áudio.;
#X text 786 221 <- seleção de timbre;
#X text 852 490 <- alteração de volume;
#X text 19 11 !!! Necessária inclusão de biblioteca externa: cyclone \; Help -> find externals -> buscar e instalar cyclone.;
#X text 306 255 Código: bang aciona [openpanel] \; e usuário seleciona um arquivo \; .mid. [openpanel] aciona a \; mensagem read \, que leva ao \; [cyclone/seq] (parâmetro \$1 - \; caminho do arquivo .mid). Read \; aciona start (parâmetro determina \; a velocidade de leitura do [seq]) \; e [cyclone/seq] grava os valores \; das notas MIDI. Como dados crus \; MIDI têm outras informações \, \; [midiparse] é usado para separar \; esses dados e o primeiro outlet \; tem como saída o par \; nota/velocidade. esse par de \; informações é capturado e \; separado por [stripnote] \, em que \; o primeiro outlet é a nota e o \; segundo \, a velocidade. Agora \, \; a nota MIDI é capturada e \, após \; operações matemáticas \, o valor \; da frequência equivalente à nota \; MIDI é obtida (conversão de MIDI \; para frequências \, referência: \; Programming Electronic Music Pd.);
#X text 725 134 Sistema de alteração do timbre para reprodução do áudio em que o usuário escolhe entre as opções 1 ou 2 Também é possível alterar diretamente os valores dos volumes para cada objeto relacionado ao timbre: [osc] e [phasor].;
#X text 421 5 !!! Possíveis melhorias: trazer valor preciso para o andamento (exibir apropriadamente o valor de BPM). Oferecer mais opções timbres possíveis para serem usados.;
#X text 306 56 Instruções: Clique no bang e selecione um arquivo \; .mid. Após isso \, selecione [start] OU altere o \; valor do andamento no Hslider. Altere o valor de \; volume de [osc] ou [phasor] e ouça o áudio \; reproduzido! (O arquivo escolhido será lido \, terá \; cada valor midi para as notas musicais capurado \, \; a fim de ser convertido no valor de frequência \; correspondente. Assim \, o áudio do .mid será \; reproduzido pelo programa Puredata. Por meio do \; HSlider \, é possível determinar a velocidade com a \; qual o .mid é reproduzido pelo programa. Também \; pode-se iniciar \, parar \, pausar e continuar a \; reprodução respectivamente \, com [start] \, [stop] \, \; [pause] \, [continue].);
#X connect 0 0 3 0;
#X connect 1 0 2 0;
#X connect 2 0 0 0;
#X connect 3 0 4 0;
#X connect 4 0 5 0;
#X connect 5 0 6 0;
#X connect 6 0 7 0;
#X connect 6 1 8 1;
#X connect 7 0 8 0;
#X connect 8 0 9 0;
#X connect 9 0 10 0;
#X connect 10 0 27 0;
#X connect 11 0 12 0;
#X connect 12 0 1 0;
#X connect 13 0 11 0;
#X connect 14 0 1 0;
#X connect 15 0 14 0;
#X connect 16 0 1 0;
#X connect 17 0 15 0;
#X connect 18 0 1 0;
#X connect 19 0 1 0;
#X connect 28 0 30 0;
#X connect 29 0 31 0;
#X connect 30 0 45 0;
#X connect 30 0 45 1;
#X connect 31 0 45 0;
#X connect 31 0 45 1;
#X connect 32 0 30 1;
#X connect 33 0 31 1;
#X connect 34 0 43 0;
#X connect 34 0 36 0;
#X connect 35 0 44 0;
#X connect 35 0 37 0;
#X connect 36 0 33 0;
#X connect 37 0 32 0;
#X connect 38 0 34 0;
#X connect 38 1 35 0;
#X connect 39 0 38 0;
#X connect 40 0 38 0;
#X connect 41 0 28 0;
#X connect 41 0 29 0;
#X connect 42 0 41 0;
#X connect 43 0 32 0;
#X connect 44 0 33 0;
