#N canvas 2871 -1181 618 768 12;
#X msg 73 53 read q.txt;
#X obj 75 142 qlist;
#X msg 107 88 tempo 1 \, rewind \, bang;
#X obj 46 232 r p1togg;
#X obj 48 267 tgl 15 0 empty empty empty 17 7 0 10 -262144 -1 -1 1
1;
#X obj 47 320 metro 300;
#X obj 48 369 random 100;
#X obj 92 434 +;
#X floatatom 165 301 5 0 0 0 - - -;
#X obj 74 489 phasor~;
#X obj 119 564 *~;
#X obj 168 490 r p1amp;
#X floatatom 172 518 5 0 0 0 - - -;
#X obj 109 629 dac~;
#X obj 148 233 r p1off;
#X connect 0 0 1 0;
#X connect 2 0 1 0;
#X connect 3 0 4 0;
#X connect 4 0 5 0;
#X connect 5 0 6 0;
#X connect 6 0 7 0;
#X connect 7 0 9 0;
#X connect 8 0 7 1;
#X connect 9 0 10 0;
#X connect 10 0 13 0;
#X connect 10 0 13 1;
#X connect 11 0 12 0;
#X connect 12 0 10 1;
#X connect 14 0 8 0;
