#N canvas 2576 -1298 988 750 12;
#X obj 329 110 fiddle~;
#X obj 24 112 sigmund~ pitch notes peaks;
#X floatatom 43 164 5 0 0 0 - - -;
#X floatatom 121 165 5 0 0 0 - - -;
#X floatatom 196 160 5 0 0 0 - - -;
#X obj 184 4 adc~;
#X obj 353 151 bng 15 250 50 0 empty empty empty 17 7 0 10 -262144
-1 -1;
#X floatatom 308 168 5 0 0 0 - - -;
#X floatatom 378 164 5 0 0 0 - - -;
#X obj 378 318 dac~;
#X obj 306 260 osc~;
#X obj 462 190 vsl 15 128 0 127 0 0 empty empty empty 0 -9 0 10 -262144
-1 -1 0 1;
#X obj 370 286 *~;
#X obj 309 218 * 2.5;
#X connect 0 0 7 0;
#X connect 0 1 6 0;
#X connect 0 2 8 0;
#X connect 1 0 2 0;
#X connect 1 1 3 0;
#X connect 1 2 4 0;
#X connect 5 0 1 0;
#X connect 5 0 0 0;
#X connect 7 0 13 0;
#X connect 10 0 12 0;
#X connect 11 0 12 1;
#X connect 12 0 9 0;
#X connect 12 0 9 1;
#X connect 13 0 10 0;
