#N canvas 2830 -1225 603 682 12;
#X obj 19 58 osc~ 440;
#X obj 104 49 osc~ 220;
#X obj 208 54 osc~ 550;
#X obj 39 156 hip~;
#X obj 100 140 lop~;
#X obj 187 158 bp~;
#X floatatom 56 94 5 0 0 0 - - -;
#X floatatom 142 104 5 0 0 0 - - -;
#X floatatom 215 99 5 0 0 0 - - -;
#X floatatom 234 132 5 0 0 0 - - -;
#N canvas 3528 -1163 599 726 meu_obj 1;
#X obj 113 73 *~;
#X obj 208 40 vsl 15 128 0 1 0 0 empty empty empty 0 -9 0 10 -262144
-1 -1 0 1;
#X obj 60 164 outlet~;
#X obj 131 163 outlet~;
#X obj 36 14 inlet~;
#X obj 105 14 inlet~;
#X obj 174 13 inlet~;
#X connect 0 0 2 0;
#X connect 0 0 3 0;
#X connect 1 0 0 1;
#X connect 4 0 0 0;
#X connect 5 0 0 0;
#X connect 6 0 0 0;
#X restore 107 233 pd meu_obj;
#X obj 126 297 dac~;
#X connect 0 0 3 0;
#X connect 1 0 4 0;
#X connect 2 0 5 0;
#X connect 3 0 10 0;
#X connect 4 0 10 1;
#X connect 5 0 10 2;
#X connect 6 0 3 1;
#X connect 7 0 4 1;
#X connect 8 0 5 1;
#X connect 9 0 5 2;
#X connect 10 0 11 0;
#X connect 10 1 11 1;
