#N canvas 4484 -1795 1379 864 12;
#X obj 189 133 osc~;
#X floatatom 195 70 5 0 0 0 - - -;
#X obj 164 197 freeverb~;
#X msg 400 116 wet \$1;
#X msg 448 116 dry \$1;
#X obj 403 61 hsl 128 15 0 1 0 0 empty empty empty -2 -8 0 10 -262144
-1 -1 25500 1;
#N canvas 1 80 546 576 inv 0;
#X obj 154 69 inlet;
#X obj 154 179 outlet;
#X msg 154 124 1;
#X obj 154 97 t b f;
#X obj 154 151 -;
#X connect 0 0 3 0;
#X connect 2 0 4 0;
#X connect 3 0 2 0;
#X connect 3 1 4 1;
#X connect 4 0 1 0;
#X restore 448 89 pd inv;
#X floatatom 506 114 5 0 0 0 - - -;
#X text 391 45 dry;
#X text 516 44 wet;
#X floatatom 407 90 5 0 0 0 - - -;
#X obj 187 362 dac~;
#X obj 199 246 *~;
#X obj 317 187 vsl 15 128 0 1 0 0 empty empty empty 0 -9 0 10 -262144
-1 -1 0 1;
#X connect 0 0 2 0;
#X connect 1 0 0 0;
#X connect 2 0 12 0;
#X connect 3 0 2 0;
#X connect 4 0 2 0;
#X connect 5 0 3 0;
#X connect 5 0 6 0;
#X connect 5 0 10 0;
#X connect 6 0 4 0;
#X connect 6 0 7 0;
#X connect 12 0 11 0;
#X connect 12 0 11 1;
#X connect 13 0 12 1;
