#N canvas 2762 -1352 951 838 12;
#X obj 58 116 qlist;
#X msg 50 30 read o.txt;
#X obj 94 160 r recv1;
#X obj 251 157 r recv3;
#X obj 173 159 r recv2;
#X obj 109 210 osc~;
#X obj 192 208 osc~;
#X obj 266 212 osc~;
#X obj 193 283 *~;
#X obj 319 146 vsl 15 128 0 1 0 0 empty empty empty 0 -9 0 10 -262144
-1 -1 500 1;
#X obj 192 343 dac~;
#X floatatom 59 191 5 0 0 0 - - -;
#X floatatom 175 127 5 0 0 0 - - -;
#X floatatom 251 123 5 0 0 0 - - -;
#X msg 108 59 tempo 1 \, rewind \, bang;
#X connect 1 0 0 0;
#X connect 2 0 5 0;
#X connect 2 0 11 0;
#X connect 3 0 7 0;
#X connect 3 0 13 0;
#X connect 4 0 6 0;
#X connect 4 0 12 0;
#X connect 5 0 8 0;
#X connect 6 0 8 0;
#X connect 7 0 8 0;
#X connect 8 0 10 0;
#X connect 8 0 10 1;
#X connect 9 0 8 1;
#X connect 14 0 0 0;
