#N canvas 4098 -1937 1660 709 12;
#X obj 59 89 osc~;
#X floatatom 65 26 5 0 0 0 - - -;
#X obj 57 146 delwrite~ meudelay 3000;
#X obj 65 205 delread~ meudelay 3000;
#X obj 60 314 dac~;
#X obj 65 257 *~;
#X obj 241 185 vsl 15 128 0 1 0 0 empty empty empty 0 -9 0 10 -262144
-1 -1 0 1;
#X obj 330 307 dac~;
#X obj 474 128 readsf~ 2;
#X obj 551 11 bng 15 250 50 0 empty empty empty 17 7 0 10 -262144 -1
-1;
#X msg 480 65 open rec.wav;
#X msg 600 193 start;
#X msg 532 203 stop;
#X obj 706 238 delay 1000;
#X obj 587 303 print x;
#X obj 327 193 delwrite~ outrodelay 300;
#X obj 335 232 delread~ outrodelay 300;
#X text 677 318 efeito de delay;
#X connect 0 0 2 0;
#X connect 1 0 0 0;
#X connect 3 0 5 0;
#X connect 5 0 4 0;
#X connect 5 0 4 1;
#X connect 6 0 5 1;
#X connect 8 0 15 0;
#X connect 8 0 7 0;
#X connect 8 0 7 1;
#X connect 9 0 13 0;
#X connect 9 0 14 0;
#X connect 9 0 10 0;
#X connect 10 0 8 0;
#X connect 11 0 8 0;
#X connect 11 0 14 0;
#X connect 12 0 8 0;
#X connect 12 0 14 0;
#X connect 13 0 11 0;
#X connect 16 0 7 0;
#X connect 16 0 7 1;
