#N canvas -2833 -185 1003 1092 12;
#X obj 180 30 tgl 15 0 empty empty empty 17 7 0 10 -262144 -1 -1 0
1;
#X obj 232 88 bng 15 250 50 0 empty empty empty 17 7 0 10 -262144 -1
-1;
#X floatatom 272 32 5 0 0 0 - - -;
#X obj 202 58 metro 400;
#X floatatom 221 165 5 0 0 0 - - -;
#X obj 184 221 moses;
#X obj 121 353 phasor~;
#X obj 294 346 osc~;
#X floatatom 278 191 5 0 0 0 - - -;
#X obj 100 246 sel 110;
#X obj 246 239 sel 220;
#X obj 156 427 *~;
#X obj 321 457 *~;
#X obj 246 288 vsl 15 128 0 1 0 0 empty empty empty 0 -9 0 10 -262144
-1 -1 0 1;
#X floatatom 353 416 5 0 0 0 - - -;
#X obj 209 287 vsl 15 128 0 127 0 0 empty empty empty 0 -9 0 10 -262144
-1 -1 0 1;
#X obj 201 495 dac~;
#X obj 38 299 random;
#X obj 329 281 random;
#X obj 347 349 osc~;
#X obj 30 348 phasor~;
#X obj 219 126 random 820;
#X connect 0 0 3 0;
#X connect 1 0 21 0;
#X connect 2 0 3 1;
#X connect 3 0 1 0;
#X connect 4 0 5 0;
#X connect 5 0 9 0;
#X connect 5 1 10 0;
#X connect 6 0 11 0;
#X connect 7 0 12 0;
#X connect 8 0 5 1;
#X connect 9 0 17 0;
#X connect 9 1 6 0;
#X connect 9 1 17 1;
#X connect 10 0 18 0;
#X connect 10 1 7 0;
#X connect 10 1 18 1;
#X connect 11 0 16 0;
#X connect 12 0 16 1;
#X connect 13 0 14 0;
#X connect 14 0 12 1;
#X connect 15 0 11 1;
#X connect 17 0 20 0;
#X connect 18 0 19 0;
#X connect 19 0 12 0;
#X connect 20 0 11 0;
#X connect 21 0 4 0;
