#N canvas 2010 -1476 1900 1115 12;
#X obj 28 71 metro;
#X floatatom 132 48 5 0 0 0 - - -;
#X obj 30 37 bng 15 250 50 0 empty empty empty 17 7 0 10 -262144 -1
-1;
#X obj 123 145 qlist;
#X msg 96 96 read o.txt;
#X obj 219 76 del 300;
#X msg 211 111 tempo 1 \, rewind \, bang;
#X obj 195 154 r recv1;
#X obj 271 151 r recv2;
#X obj 345 155 r recv3;
#X floatatom 195 183 5 0 0 0 - - -;
#X floatatom 271 185 5 0 0 0 - - -;
#X floatatom 346 182 5 0 0 0 - - -;
#X obj 367 247 vsl 15 128 0 1 0 0 empty empty empty 0 -9 0 10 -262144
-1 -1 0 1;
#X obj 195 317 dac~;
#X obj 277 248 osc~;
#X obj 270 282 *~;
#X obj 111 8 r tempo;
#X obj 50 241 s tempo;
#X obj 16 136 vsl 15 128 1 220 0 0 empty empty empty 0 -9 0 10 -262144
-1 -1 25500 1;
#X floatatom 405 251 5 0 0 0 - - -;
#X floatatom 483 57 5 0 0 0 - - -;
#X floatatom 520 243 5 0 0 0 - - -;
#X msg 458 22 0.8 1000;
#X msg 478 210 0 1000;
#X obj 93 335 timer;
#X floatatom 94 378 5 0 0 0 - - -;
#X obj 147 264 bng 15 250 50 0 empty empty empty 17 7 0 10 -262144
-1 -1;
#X obj 75 430 print t1;
#X floatatom 542 33 5 0 1 0 - - -;
#X floatatom 577 245 5 0 1 0 - - -;
#X obj 464 86 line 0 100;
#X obj 277 475 writesf~ 2;
#X msg 192 373 open x.wav;
#X msg 193 446 start;
#X msg 190 348 stop;
#X obj 187 411 del 200;
#X text 30 10 start rec;
#X text 145 227 stop rec;
#X msg 479 347 open x.wav;
#X obj 495 431 readsf~ 2;
#X msg 509 384 start;
#X obj 498 484 freeverb~;
#X msg 659 426 wet \$1;
#X msg 707 426 dry \$1;
#X obj 662 371 hsl 128 15 0 1 0 0 empty empty empty -2 -8 0 10 -262144
-1 -1 18200 1;
#N canvas 1 80 450 300 inv 0;
#X obj 154 69 inlet;
#X obj 154 179 outlet;
#X msg 154 124 1;
#X obj 154 97 t b f;
#X obj 154 151 -;
#X connect 0 0 3 0;
#X connect 2 0 4 0;
#X connect 3 0 2 0;
#X connect 3 1 4 1;
#X connect 4 0 1 0;
#X restore 707 399 pd inv;
#X floatatom 765 424 5 0 0 0 - - -;
#X text 650 355 dry;
#X text 775 354 wet;
#X floatatom 666 400 5 0 0 0 - - -;
#X obj 519 524 dac~;
#X obj 485 289 line 0.8 100;
#X connect 1 0 0 1;
#X connect 2 0 0 0;
#X connect 2 0 4 0;
#X connect 2 0 5 0;
#X connect 2 0 25 0;
#X connect 2 0 33 0;
#X connect 2 0 36 0;
#X connect 4 0 3 0;
#X connect 5 0 6 0;
#X connect 6 0 3 0;
#X connect 7 0 10 0;
#X connect 8 0 11 0;
#X connect 9 0 12 0;
#X connect 10 0 15 0;
#X connect 11 0 15 0;
#X connect 12 0 15 0;
#X connect 13 0 16 1;
#X connect 15 0 16 0;
#X connect 15 0 32 0;
#X connect 15 0 32 1;
#X connect 16 0 14 0;
#X connect 16 0 14 1;
#X connect 17 0 1 0;
#X connect 19 0 18 0;
#X connect 20 0 13 0;
#X connect 21 0 31 1;
#X connect 22 0 52 1;
#X connect 23 0 31 0;
#X connect 24 0 52 0;
#X connect 25 0 26 0;
#X connect 26 0 28 0;
#X connect 27 0 25 1;
#X connect 27 0 35 0;
#X connect 29 0 31 2;
#X connect 30 0 52 2;
#X connect 31 0 20 0;
#X connect 33 0 32 0;
#X connect 34 0 32 0;
#X connect 35 0 32 0;
#X connect 36 0 34 0;
#X connect 39 0 40 0;
#X connect 40 0 42 0;
#X connect 40 1 42 1;
#X connect 41 0 40 0;
#X connect 42 0 51 0;
#X connect 42 1 51 1;
#X connect 43 0 42 0;
#X connect 44 0 42 0;
#X connect 45 0 43 0;
#X connect 45 0 46 0;
#X connect 45 0 50 0;
#X connect 46 0 44 0;
#X connect 46 0 47 0;
#X connect 52 0 20 0;
