#N canvas 2892 -1340 1328 882 12;
#X obj 28 71 metro;
#X floatatom 132 48 5 0 0 0 - - -;
#X obj 30 37 bng 15 250 50 0 empty empty empty 17 7 0 10 -262144 -1
-1;
#X obj 123 145 qlist;
#X msg 96 96 read o.txt;
#X obj 219 76 del 300;
#X msg 211 111 tempo 1 \, rewind \, bang;
#X obj 195 154 r recv1;
#X obj 271 151 r recv2;
#X obj 345 155 r recv3;
#X floatatom 195 183 5 0 0 0 - - -;
#X floatatom 271 185 5 0 0 0 - - -;
#X floatatom 346 182 5 0 0 0 - - -;
#X obj 367 247 vsl 15 128 0 1 0 0 empty empty empty 0 -9 0 10 -262144
-1 -1 0 1;
#X obj 272 330 dac~;
#X obj 277 248 osc~;
#X obj 280 281 *~;
#X obj 111 8 r tempo;
#X obj 50 241 s tempo;
#X obj 16 136 vsl 15 128 1 220 0 0 empty empty empty 0 -9 0 10 -262144
-1 -1 25500 1;
#X floatatom 405 251 5 0 0 0 - - -;
#X obj 58 339 line 0 100;
#X floatatom 67 385 5 0 0 0 - - -;
#X floatatom 127 275 5 0 0 0 - - -;
#X floatatom 483 57 5 0 0 0 - - -;
#X floatatom 520 243 5 0 0 0 - - -;
#X msg 458 22 0.8 1000;
#X msg 478 210 0 1000;
#X msg 32 284 1 1000;
#X obj 192 343 timer;
#X floatatom 200 372 5 0 0 0 - - -;
#X obj 237 284 bng 15 250 50 0 empty empty empty 17 7 0 10 -262144
-1 -1;
#X obj 230 409 print t1;
#X floatatom 542 33 5 0 1 0 - - -;
#X floatatom 577 245 5 0 1 0 - - -;
#X obj 464 86 line 0 100;
#X obj 485 289 line 0.8 100;
#X connect 1 0 0 1;
#X connect 2 0 0 0;
#X connect 2 0 4 0;
#X connect 2 0 5 0;
#X connect 2 0 29 0;
#X connect 4 0 3 0;
#X connect 5 0 6 0;
#X connect 6 0 3 0;
#X connect 7 0 10 0;
#X connect 8 0 11 0;
#X connect 9 0 12 0;
#X connect 10 0 15 0;
#X connect 11 0 15 0;
#X connect 12 0 15 0;
#X connect 13 0 16 1;
#X connect 15 0 16 0;
#X connect 16 0 14 0;
#X connect 16 0 14 1;
#X connect 17 0 1 0;
#X connect 19 0 18 0;
#X connect 20 0 13 0;
#X connect 21 0 22 0;
#X connect 23 0 21 1;
#X connect 24 0 35 1;
#X connect 25 0 36 1;
#X connect 26 0 35 0;
#X connect 27 0 36 0;
#X connect 28 0 21 0;
#X connect 29 0 30 0;
#X connect 30 0 32 0;
#X connect 31 0 29 1;
#X connect 33 0 35 2;
#X connect 34 0 36 2;
#X connect 35 0 20 0;
#X connect 36 0 20 0;
