#N canvas 2386 -1328 1484 780 12;
#X obj 228 260 osc~;
#X obj 221 358 dac~;
#X obj 231 311 *~;
#X floatatom 341 311 5 0 0 0 - - -;
#X floatatom 177 126 5 0 0 0 - - -;
#X msg 235 5 220;
#X msg 312 16 440;
#X msg 381 15 660;
#X obj 525 201 vsl 15 128 0 1 0 0 empty empty empty 0 -9 0 10 -262144
-1 -1 17780 1;
#X floatatom 580 252 5 0 0 0 - - -;
#X obj 14 11 key;
#X floatatom 30 52 5 0 0 0 - - -;
#X obj 49 94 == 10;
#X floatatom 111 29 5 0 0 0 - - -;
#X floatatom 299 127 5 0 0 0 - - -;
#X obj 229 153 +;
#X floatatom 222 222 5 0 0 0 - - -;
#X obj 122 72 * 110;
#X obj 114 103 bng 15 250 50 0 empty empty empty 17 7 0 10 -262144
-1 -1;
#X obj 445 57 moses 440;
#X floatatom 392 120 5 0 0 0 - - -;
#X floatatom 555 100 5 0 0 0 - - -;
#X obj 387 162 sel 220;
#X obj 383 212 bng 15 250 50 0 empty empty empty 17 7 0 10 -262144
-1 -1;
#X msg 459 246 0.3;
#X obj 564 158 sel 440;
#X msg 593 201 0.7;
#X connect 0 0 2 0;
#X connect 2 0 1 0;
#X connect 2 0 1 1;
#X connect 3 0 2 1;
#X connect 4 0 15 0;
#X connect 5 0 4 0;
#X connect 6 0 4 0;
#X connect 7 0 4 0;
#X connect 8 0 3 0;
#X connect 9 0 8 0;
#X connect 10 0 11 0;
#X connect 11 0 12 0;
#X connect 12 0 13 0;
#X connect 13 0 17 0;
#X connect 14 0 15 1;
#X connect 15 0 16 0;
#X connect 16 0 0 0;
#X connect 16 0 19 0;
#X connect 17 0 14 0;
#X connect 17 0 18 0;
#X connect 18 0 4 0;
#X connect 19 0 20 0;
#X connect 19 1 21 0;
#X connect 20 0 22 0;
#X connect 21 0 25 0;
#X connect 22 0 23 0;
#X connect 23 0 24 0;
#X connect 24 0 9 0;
#X connect 25 0 26 0;
#X connect 26 0 9 0;
