#N canvas -1697 2817 882 836 12;
#X obj 105 155 osc~;
#X floatatom 105 76 5 0 0 0 - - -;
#X obj 111 296 dac~;
#X obj 140 214 *~;
#X floatatom 180 162 5 0 1 0 - - -;
#X msg 198 97 0;
#X connect 0 0 3 0;
#X connect 1 0 0 0;
#X connect 3 0 2 0;
#X connect 3 0 2 1;
#X connect 4 0 3 1;
#X connect 5 0 4 0;
