#N canvas -2331 -74 835 718 12;
#X obj 27 8 tgl 15 0 empty empty empty 17 7 0 10 -262144 -1 -1 1 1
;
#X obj 79 66 bng 15 250 50 0 empty empty empty 17 7 0 10 -262144 -1
-1;
#X floatatom 119 10 5 0 0 0 - - -;
#X obj 49 36 metro 400;
#X obj 133 220 osc~;
#X obj 90 254 dac~;
#X obj 189 221 osc~;
#X obj 130 182 *;
#X obj 188 179 *;
#X obj 219 92 random 4;
#X obj 138 108 random 3;
#X floatatom 12 136 5 0 0 0 - - -;
#X obj 13 100 random 440;
#X obj 244 211 phasor~;
#X obj 54 221 phasor~;
#X connect 0 0 3 0;
#X connect 1 0 10 0;
#X connect 1 0 9 0;
#X connect 1 0 12 0;
#X connect 2 0 3 1;
#X connect 3 0 1 0;
#X connect 4 0 5 1;
#X connect 6 0 5 1;
#X connect 7 0 4 0;
#X connect 8 0 6 0;
#X connect 9 0 8 1;
#X connect 10 0 7 1;
#X connect 11 0 7 0;
#X connect 11 0 8 0;
#X connect 11 0 14 0;
#X connect 12 0 11 0;
#X connect 14 0 5 0;
