#N canvas -1890 -85 1495 450 12;
#X obj 39 127 osc~;
#X obj 44 65 * 1;
#X obj 98 67 * 0.5;
#X obj 173 65 * 1.5;
#X msg 195 21 440;
#X floatatom 32 95 5 0 0 0 - - -;
#X floatatom 99 97 5 0 0 0 - - -;
#X floatatom 168 96 5 0 0 0 - - -;
#X obj 103 131 osc~;
#X obj 169 133 osc~;
#X obj 108 186 dac~;
#X msg 35 19 523;
#X floatatom 235 53 5 0 0 0 - - -;
#X floatatom 310 50 5 0 0 0 - - -;
#X floatatom 269 140 5 0 0 0 - - -;
#X obj 272 85 !=;
#X text 157 169 Operadores aritiméticos e lógicos...;
#X floatatom 368 27 5 0 0 0 - - -;
#X floatatom 454 24 5 0 0 0 - - -;
#X obj 390 64 moses 20;
#X floatatom 371 104 5 0 0 0 - - -;
#X floatatom 447 104 5 0 0 0 - - -;
#X obj 543 127 bng 15 250 50 0 empty empty empty 17 7 0 10 -262144
-1 -1;
#X obj 496 169 print x1;
#X msg 585 11 symbol dag;
#X obj 588 119 bng 15 250 50 0 empty empty empty 17 7 0 10 -262144
-1 -1;
#X msg 617 42 symbol dog;
#X obj 648 126 print x3;
#X obj 596 172 print x2;
#X msg 510 39 13;
#X obj 539 79 sel dog dag;
#X connect 0 0 10 0;
#X connect 1 0 5 0;
#X connect 2 0 6 0;
#X connect 3 0 7 0;
#X connect 4 0 3 0;
#X connect 4 0 2 0;
#X connect 4 0 1 0;
#X connect 5 0 0 0;
#X connect 6 0 8 0;
#X connect 7 0 9 0;
#X connect 8 0 10 1;
#X connect 9 0 10 0;
#X connect 11 0 1 0;
#X connect 11 0 2 0;
#X connect 11 0 3 0;
#X connect 12 0 15 0;
#X connect 13 0 15 1;
#X connect 15 0 14 0;
#X connect 17 0 19 0;
#X connect 18 0 19 1;
#X connect 19 0 20 0;
#X connect 19 1 21 0;
#X connect 22 0 23 0;
#X connect 24 0 30 0;
#X connect 25 0 28 0;
#X connect 26 0 30 0;
#X connect 29 0 30 0;
#X connect 30 0 22 0;
#X connect 30 1 25 0;
#X connect 30 2 27 0;
