#N canvas -1578 -100 974 632 12;
#X obj 108 53 line;
#X floatatom 111 95 5 0 0 0 - - -;
#X obj 121 146 osc~;
#X obj 123 263 dac~;
#X obj 119 192 *~, f 5;
#X obj 180 172 tgl 15 0 empty empty empty 17 7 0 10 -262144 -1 -1 0
1;
#X msg 101 15 200 \, 1200 10000;
#X obj 231 70 vsl 15 128 0 1 0 0 empty empty empty 0 -9 0 10 -262144
-1 -1 0 1;
#X connect 0 0 1 0;
#X connect 1 0 2 0;
#X connect 2 0 4 0;
#X connect 4 0 3 0;
#X connect 4 0 3 1;
#X connect 5 0 4 1;
#X connect 6 0 0 0;
#X connect 7 0 4 1;
