#N canvas -1530 -237 806 580 12;
#X obj 51 183 print x1;
#X obj 54 110 delay 1000;
#X msg 37 42 bang;
#X obj 174 108 pipe 1000;
#X floatatom 182 45 5 0 0 0 - - -;
#X floatatom 175 151 5 0 0 0 - - -;
#X floatatom 279 172 5 0 0 0 - - -;
#X obj 273 114 line;
#X msg 273 42 100 20000;
#X msg 345 64 set 0, f 6;
#X connect 1 0 0 0;
#X connect 2 0 1 0;
#X connect 3 0 5 0;
#X connect 4 0 3 0;
#X connect 7 0 6 0;
#X connect 8 0 7 0;
#X connect 9 0 7 0;
