#N canvas 1845 35 1920 966 12;
#X obj 571 322 osc~;
#X obj 633 322 phasor~;
#X obj 572 373 *~;
#X obj 634 374 *~;
#X obj 520 294 vsl 19 162 0 1 0 0 empty empty empty 0 -9 0 12 #fcfcfc #000000 #000000 0 1;
#X obj 707 294 vsl 19 162 0 1 0 0 empty empty empty 0 -9 0 12 #fcfcfc #000000 #000000 0 1;
#X obj 605 443 dac~;
#X obj 569 153 / 2;
#X obj 614 153 * 1.5;
#X obj 660 153 * 2;
#X floatatom 660 177 5 0 0 0 - - - 0;
#X floatatom 614 177 5 0 0 0 - - - 0;
#X floatatom 569 177 5 0 0 0 - - - 0;
#X floatatom 732 26 5 0 0 0 - - - 0;
#X floatatom 697 76 5 0 0 0 - - - 0;
#X obj 646 93 *;
#X floatatom 611 122 5 0 0 0 - - - 0;
#X floatatom 749 76 5 0 0 0 - - - 0;
#X obj 729 106 *;
#X floatatom 726 132 5 0 0 0 - - - 0;
#X text 27 23 Operadores aritméticos e relacionais A partir de uma entrada de 350 \, o valor é permitido e pode ser utilizado para gerar sons \; também \, valores menores (<=) que 650 são permitidos \; isso previne que usuários coloquem valores muito graves ou muito agudos. Os testes relacionais são feitos e geram 0 ou 1 \; se ambos os testes resultarem em 1 \, o número de entrada está dentro da faixa [350 \, 650] e é aceito.;
#X obj 526 200 moses 440;
#X obj 599 200 moses 440;
#X obj 672 200 moses 440;
#X floatatom 511 233 5 0 0 0 - - - 0;
#X floatatom 553 233 5 0 0 0 - - - 0;
#X floatatom 595 233 5 0 0 0 - - - 0;
#X floatatom 637 233 5 0 0 0 - - - 0;
#X floatatom 680 233 5 0 0 0 - - - 0;
#X floatatom 722 233 5 0 0 0 - - - 0;
#X text 41 185 O valor obtido do usuário é usado para gerar 3 valores distintos com os operadores aritméticos ao lado. O objeto moses é usado para dividir os valores a partir de 440 Valores maiores que 440 são tocados pelo osc~ \, enquanto os valores menores \, pelo phasor~.;
#X text 41 336 Os volumes da cada objeto (osc~ e phasor~) são controlados pelos objetos '*~' e seus respectivos vsliders.;
#X msg 774 205 0;
#X obj 697 52 >= 200;
#X obj 749 52 <= 700;
#X connect 0 0 2 0;
#X connect 1 0 3 0;
#X connect 2 0 6 0;
#X connect 2 0 6 1;
#X connect 3 0 6 1;
#X connect 3 0 6 0;
#X connect 4 0 2 1;
#X connect 5 0 3 1;
#X connect 7 0 12 0;
#X connect 8 0 11 0;
#X connect 9 0 10 0;
#X connect 10 0 23 0;
#X connect 11 0 22 0;
#X connect 12 0 21 0;
#X connect 13 0 15 0;
#X connect 13 0 33 0;
#X connect 13 0 34 0;
#X connect 14 0 18 0;
#X connect 15 0 16 0;
#X connect 16 0 7 0;
#X connect 16 0 8 0;
#X connect 16 0 9 0;
#X connect 17 0 18 1;
#X connect 18 0 19 0;
#X connect 19 0 15 1;
#X connect 21 0 24 0;
#X connect 21 1 25 0;
#X connect 22 0 26 0;
#X connect 22 1 27 0;
#X connect 23 0 28 0;
#X connect 23 1 29 0;
#X connect 24 0 1 0;
#X connect 25 0 0 0;
#X connect 26 0 1 0;
#X connect 27 0 0 0;
#X connect 28 0 1 0;
#X connect 29 0 0 0;
#X connect 32 0 29 0;
#X connect 32 0 27 0;
#X connect 33 0 14 0;
#X connect 34 0 17 0;
