#N canvas 0 0 1920 966 12;
#X obj 118 365 osc~;
#X obj 181 365 phasor~;
#X obj 118 416 *~;
#X obj 181 416 *~;
#X obj 75 270 vsl 19 162 0 0.025 0 0 empty empty empty 0 -9 0 12 #fcfcfc #000000 #000000 0 1;
#X obj 252 270 vsl 19 162 0 0.025 0 0 empty empty empty 0 -9 0 12 #fcfcfc #000000 #000000 0 1;
#X obj 145 201 bng 19 250 50 0 empty empty empty 0 -10 0 12 #fcfcfc #000000 #000000;
#X obj 193 201 bng 19 250 50 0 empty empty empty 0 -10 0 12 #fcfcfc #000000 #000000;
#X msg 143 230 0;
#X msg 235 230 0;
#X obj 141 174 select 1 2;
#X msg 148 149 1;
#X msg 184 149 2;
#X obj 54 532 freeverb~;
#X obj 502 79 metro 500;
#X obj 479 33 bng 19 250 50 0 empty empty empty 0 -10 0 12 #fcfcfc #000000 #000000;
#X msg 506 33 stop;
#X msg 568 18 1000;
#X msg 568 42 2000;
#X msg 156 561 wet \$1;
#X msg 204 561 dry \$1;
#X obj 159 506 hsl 128 15 0 1 0 0 empty empty empty -2 -8 0 10 #fcfcfc #000000 #000000 0 1;
#N canvas 1 80 450 300 inv 0;
#X obj 154 69 inlet;
#X obj 154 179 outlet;
#X msg 154 124 1;
#X obj 154 97 t b f;
#X obj 154 151 -;
#X connect 0 0 3 0;
#X connect 2 0 4 0;
#X connect 3 0 2 0;
#X connect 3 1 4 1;
#X connect 4 0 1 0;
#X restore 204 534 pd inv;
#X floatatom 260 562 5 0 0 0 - - - 0;
#X text 147 490 dry;
#X text 272 489 wet;
#X floatatom 163 535 5 0 0 0 - - - 0;
#X floatatom 132 333 5 0 0 0 - - - 0;
#X text 27 17 O usuário pode escolher a opção 1 ou 2 \; o valor será levado ao select \, que para cada opção \, irá alterar o volume de osc~ e phasor~ \, indicando qual irá funcionar \; 1- osc~ funciona \, phasor~ no mudo \; 2- phasor~ funciona \, osc~ no mudo \; Os volumes da cada objeto (osc~ e phasor~) são controlados pelos objetos '*~' e seus respectivos vsliders.;
#X obj 556 122 qlist;
#X msg 631 46 read test2.txt;
#X msg 631 103 tempo \$1 \, rewind \, bang;
#X msg 664 75 1;
#X msg 731 75 2;
#X msg 631 75 0.5;
#X msg 697 75 1.5;
#X msg 765 75 2.5;
#X obj 132 309 receive note;
#X obj 71 571 dac~;
#X msg 631 128 rewind;
#X text 825 18 metro é usado para que se possa ouvir os valores lidos do qlist em loop de acordo com a quantidade de milissegundos escolhida \; qlist lê as informações de notas e seus tempos a partir do test2.txt \; também pode-se decidir a velocidade da reprodução escolhendo o valor do tempo (0.5 \, 1 \, 1.5 \, etc). (rewind é usado para parar a reprodução);
#X msg 281 249 start;
#X msg 433 249 stop;
#X obj 347 291 writesf~ 2;
#X msg 433 405 open test.wav;
#X msg 433 429 start;
#X msg 433 454 stop;
#X obj 436 535 dac~;
#X obj 433 478 readsf~ 2;
#X obj 371 157 bng 19 250 50 0 empty empty empty 0 -10 0 12 #fcfcfc #000000 #000000;
#X obj 371 211 t b b;
#X text 110 269 recebe 'note' do \; arquivo test2.txt;
#X text 482 306 'stop' faz a gravação parar.;
#X obj 642 363 freeverb~;
#X msg 737 402 wet \$1;
#X msg 785 402 dry \$1;
#X obj 740 347 hsl 128 15 0 1 0 0 empty empty empty -2 -8 0 10 #fcfcfc #000000 #000000 0 1;
#N canvas 1 80 450 300 inv 0;
#X obj 154 69 inlet;
#X obj 154 179 outlet;
#X msg 154 124 1;
#X obj 154 97 t b f;
#X obj 154 151 -;
#X connect 0 0 3 0;
#X connect 2 0 4 0;
#X connect 3 0 2 0;
#X connect 3 1 4 1;
#X connect 4 0 1 0;
#X restore 785 375 pd inv;
#X floatatom 841 403 5 0 0 0 - - - 0;
#X text 728 331 dry;
#X text 853 330 wet;
#X floatatom 744 376 5 0 0 0 - - - 0;
#X obj 393 157 tgl 19 0 empty empty empty 0 -10 0 12 #fcfcfc #000000 #000000 0 1;
#X obj 368 185 spigot;
#X text 430 168 Deseja gravar o áudio reproduzido? Acione o toggle. (Spigot funciona como um portão \; o input esquerdo só é permitido passar se o input direito for 1 (True)).;
#X text 485 246 ao escolher o valor do tempo \, um bang é levado ao trigger \, que solta bangs da direita para a esquerda \; o arquivo de áudio é aberto e a gravação começa.;
#X obj 657 534 writesf~ 2;
#X msg 579 476 start;
#X msg 735 476 stop;
#X obj 784 448 bng 19 250 50 0 empty empty empty 0 -10 0 12 #fcfcfc #000000 #000000;
#X obj 784 502 t b b;
#X obj 806 448 tgl 19 0 empty empty empty 0 -10 0 12 #fcfcfc #000000 #000000 0 1;
#X obj 781 476 spigot;
#X text 836 449 Deseja gravar alterar o áudio reproduzido com efeitos do freeverb? Acione o toggle.;
#X msg 627 476 open test2.wav;
#X msg 329 249 open test.wav;
#X msg 94 230 0.025;
#X msg 184 230 0.025;
#X text 386 357 Para ouvir a gravação do \; áudio que foi realizada:;
#X connect 0 0 2 0;
#X connect 1 0 3 0;
#X connect 2 0 13 0;
#X connect 2 0 13 1;
#X connect 3 0 13 0;
#X connect 3 0 13 1;
#X connect 4 0 2 1;
#X connect 5 0 3 1;
#X connect 6 0 76 0;
#X connect 6 0 8 0;
#X connect 7 0 77 0;
#X connect 7 0 9 0;
#X connect 8 0 5 0;
#X connect 9 0 4 0;
#X connect 10 0 6 0;
#X connect 10 1 7 0;
#X connect 11 0 10 0;
#X connect 12 0 10 0;
#X connect 13 0 38 0;
#X connect 13 0 43 0;
#X connect 13 1 38 1;
#X connect 13 1 43 1;
#X connect 14 0 29 0;
#X connect 15 0 14 0;
#X connect 16 0 14 0;
#X connect 17 0 14 1;
#X connect 18 0 14 1;
#X connect 19 0 13 0;
#X connect 20 0 13 0;
#X connect 21 0 19 0;
#X connect 21 0 22 0;
#X connect 21 0 26 0;
#X connect 22 0 20 0;
#X connect 22 0 23 0;
#X connect 27 0 0 0;
#X connect 27 0 1 0;
#X connect 30 0 29 0;
#X connect 31 0 29 0;
#X connect 31 0 49 0;
#X connect 32 0 31 0;
#X connect 33 0 31 0;
#X connect 34 0 31 0;
#X connect 35 0 31 0;
#X connect 36 0 31 0;
#X connect 37 0 27 0;
#X connect 39 0 29 0;
#X connect 41 0 43 0;
#X connect 42 0 43 0;
#X connect 44 0 48 0;
#X connect 45 0 48 0;
#X connect 45 0 69 0;
#X connect 46 0 48 0;
#X connect 48 0 47 0;
#X connect 48 0 53 0;
#X connect 48 1 47 1;
#X connect 48 1 53 1;
#X connect 49 0 63 0;
#X connect 50 0 41 0;
#X connect 50 1 75 0;
#X connect 53 0 66 0;
#X connect 53 1 66 1;
#X connect 54 0 53 0;
#X connect 55 0 53 0;
#X connect 56 0 54 0;
#X connect 56 0 57 0;
#X connect 56 0 61 0;
#X connect 57 0 55 0;
#X connect 57 0 58 0;
#X connect 62 0 63 1;
#X connect 63 0 50 0;
#X connect 67 0 66 0;
#X connect 68 0 66 0;
#X connect 69 0 72 0;
#X connect 70 0 67 0;
#X connect 70 1 74 0;
#X connect 71 0 72 1;
#X connect 72 0 70 0;
#X connect 74 0 66 0;
#X connect 75 0 43 0;
#X connect 76 0 4 0;
#X connect 77 0 5 0;
