#N canvas 3112 -1303 653 872 12;
#X obj 143 243 osc~;
#X obj 143 294 *~;
#X obj 139 367 dac~;
#X floatatom 142 206 5 0 0 0 - - -;
#X obj 141 163 random 800;
#X obj 141 103 metro;
#X floatatom 241 73 5 0 0 0 - - -;
#X obj 122 71 tgl 15 0 empty empty empty 17 7 0 10 -262144 -1 -1 0
1;
#X obj 142 134 bng 15 250 50 0 empty empty empty 17 7 0 10 -262144
-1 -1;
#X obj 260 191 vsl 15 128 0 1 0 0 empty empty empty 0 -9 0 10 -262144
-1 -1 0 1;
#X obj 98 12 r start;
#X obj 253 156 r volume;
#X obj 22 218 print n:;
#X obj 40 271 s note;
#X obj 241 31 r andamento;
#X obj 86 351 ftom;
#X obj 25 388 noteout;
#X obj 206 117 print a:;
#X obj 192 210 print v:;
#X connect 0 0 1 0;
#X connect 1 0 2 0;
#X connect 1 0 2 1;
#X connect 3 0 0 0;
#X connect 3 0 12 0;
#X connect 3 0 13 0;
#X connect 3 0 15 0;
#X connect 4 0 3 0;
#X connect 5 0 8 0;
#X connect 6 0 5 1;
#X connect 6 0 17 0;
#X connect 7 0 5 0;
#X connect 8 0 4 0;
#X connect 9 0 1 1;
#X connect 10 0 7 0;
#X connect 11 0 9 0;
#X connect 11 0 18 0;
#X connect 14 0 6 0;
#X connect 15 0 16 0;
