#N canvas 3066 -1271 1084 680 12;
#X obj 341 26 r fromC;
#X obj 342 167 s toC;
#X obj 402 166 print PD;
#X obj 342 103 * 2;
#X obj 225 16 r fromC_s;
#X obj 225 116 print sym:;
#X obj 455 96 s toC;
#X obj 60 192 dac~;
#X obj 68 122 *~ 0.1;
#X obj 69 37 phasor~ 440;
#X connect 0 0 2 0;
#X connect 0 0 3 0;
#X connect 3 0 1 0;
#X connect 4 0 5 0;
#X connect 4 0 6 0;
#X connect 8 0 7 0;
#X connect 8 0 7 1;
#X connect 9 0 8 0;
