#N canvas 724 71 930 834 12;
#X floatatom 102 63 5 0 0 0 - - - 0;
#X floatatom 101 121 5 0 0 0 - - - 0;
#X floatatom 163 122 5 0 0 0 - - - 0;
#X text 8 4 considerando a operação de divisão inteira: div: quociente da divisão inteira \; mod: resto da divisão inteira;
#X floatatom 148 63 5 0 0 0 - - - 0;
#X obj 100 94 div;
#X obj 161 94 mod;
#X text 8 161 outras operações: sin \, cos \, tan \, log \, abs \, sqrt...;
#X msg 93 294 bang;
#X floatatom 96 360 5 0 0 0 - - - 0;
#X floatatom 244 310 5 0 0 0 - - - 0;
#X obj 202 341 random;
#X floatatom 204 373 5 0 0 0 - - - 0;
#X msg 184 309 bang;
#X text 8 190 random: cria um número aleatório dado uma faixa de valores \; o valor padrão do limite inferior é sempre 0 e o limite superior é um valor de entrada (apenas como parâmetro) \; para 'random 4' \, por exemplo \, as possíveis saídas são '0 \, 1 \, 2 \, 3'.;
#X text 181 283 não funciona:;
#X obj 83 328 random 41;
#X connect 0 0 5 0;
#X connect 0 0 6 0;
#X connect 4 0 6 1;
#X connect 4 0 5 1;
#X connect 5 0 1 0;
#X connect 6 0 2 0;
#X connect 8 0 16 0;
#X connect 10 0 11 1;
#X connect 11 0 12 0;
#X connect 13 0 11 0;
#X connect 16 0 9 0;
