#N canvas 949 384 1920 966 12;
#X msg 75 212 bang;
#X obj 49 237 expr (4* (5-2))/4;
#X floatatom 74 264 5 0 0 0 - - - 0;
#X obj 42 137 expr ($f1* (5-2))/$f2;
#X floatatom 102 168 5 0 0 0 - - - 0;
#X floatatom 40 114 5 0 0 0 - - - 0;
#X floatatom 159 115 5 0 0 0 - - - 0;
#X msg 251 89 bang;
#X obj 249 121 expr 17/7;
#X floatatom 255 151 5 0 0 0 - - - 0;
#X msg 247 202 bang;
#X floatatom 251 264 5 0 0 0 - - - 0;
#X obj 245 234 expr 17/7.;
#X msg 103 114 bang;
#X text 41 15 expr: usamos para escrever expressões \; podemos usar variáveis ou constantes \; podemos usar expr também para realizar uma operação mais simples;
#X connect 0 0 1 0;
#X connect 1 0 2 0;
#X connect 3 0 4 0;
#X connect 5 0 3 0;
#X connect 6 0 3 1;
#X connect 6 0 13 0;
#X connect 7 0 8 0;
#X connect 8 0 9 0;
#X connect 10 0 12 0;
#X connect 12 0 11 0;
#X connect 13 0 5 0;
