#N canvas 2580 228 944 799 12;
#X msg 147 79 bang;
#X floatatom 217 80 5 0 0 0 - - - 0;
#X obj 186 114 f;
#X floatatom 181 144 5 0 0 0 - - - 0;
#X text 15 16 float: esse objeto é usado para guardar números \; entradas são um bang e um número \; quando o bang é clicado \, o valor de saída será igual ao número da entrada.;
#X text 16 177 com esse recurso \, pode-se criar um contador de clicks...;
#X msg 66 256 bang;
#X floatatom 150 229 5 0 0 0 - - - 0;
#X obj 105 291 f;
#X floatatom 100 321 5 0 0 0 - - - 0;
#X obj 150 258 + 1;
#X msg 261 231 bang;
#X floatatom 331 230 5 0 0 0 - - - 0;
#X obj 300 266 f;
#X floatatom 294 321 5 0 0 0 - - - 0;
#X obj 300 293 + 1;
#X connect 0 0 2 0;
#X connect 1 0 2 1;
#X connect 2 0 3 0;
#X connect 6 0 8 0;
#X connect 7 0 10 0;
#X connect 8 0 9 0;
#X connect 9 0 10 0;
#X connect 10 0 8 1;
#X connect 11 0 13 0;
#X connect 12 0 13 1;
#X connect 13 0 15 0;
#X connect 14 0 13 1;
#X connect 15 0 14 0;
