#N canvas 1402 280 1920 966 12;
#X obj 64 103 moses 10;
#X floatatom 58 77 5 0 0 0 - - - 0;
#X floatatom 57 133 5 0 0 0 - - - 0;
#X floatatom 105 133 5 0 0 0 - - - 0;
#X text 10 8 moses: para um inlet menor que o argumento \, o valor do inlet aparece na saída esquerda \; para um inlet maior \, o valor do inlet irá aparecer na saída direita.;
#X obj 224 105 moses 10;
#X floatatom 218 79 5 0 0 0 - - - 0;
#X floatatom 217 135 5 0 0 0 - - - 0;
#X floatatom 265 135 5 0 0 0 - - - 0;
#X floatatom 160 232 5 0 0 0 - - - 0;
#X floatatom 182 290 5 0 0 0 - - - 0;
#X floatatom 230 290 5 0 0 0 - - - 0;
#X obj 189 260 moses;
#X floatatom 223 232 5 0 0 0 - - - 0;
#X text 15 177 também podemos substituir o argumento do moses por um valor de inlet do lado direito;
#X connect 0 0 2 0;
#X connect 0 1 3 0;
#X connect 1 0 0 0;
#X connect 5 0 7 0;
#X connect 5 1 8 0;
#X connect 6 0 5 0;
#X connect 9 0 12 0;
#X connect 12 0 10 0;
#X connect 12 1 11 0;
#X connect 13 0 12 1;
