#N canvas 654 20 1920 966 12;
#X msg 51 96 hello;
#X obj 51 120 pack s f;
#X obj 51 147 print;
#X msg 104 96 34;
#X obj 51 72 t s f;
#X msg 51 48 bang;
#X listbox 100 147 20 0 0 0 - - - 0;
#X obj 100 170 unpack s f;
#X obj 100 194 print 2;
#X obj 155 194 print 1;
#X text 226 38 usamos trigger para fazer com que as mensagens sejam ativadas na ordem correta e enviadas ao 'pack' \;;
#X text 258 86 pack: unirá as mensagens recebidas em uma lista e retornará essa lista criada.;
#X text 258 134 unpack: irá separar os itens de uma lista e retornará esses itens de acordo com o tipo indicado nos parâmetros.;
#X text 44 236 print: hello 34;
#X text 44 253 1: 34;
#X text 44 270 2: symbol hello;
#X text 258 182 problema com 'pack s s': o primeiro input não precisa ser especificado como um símbolo \, mas o segundo precisa!;
#X text 257 230 se uma lista começa com um número \, ela não precisa ser explicitamente rotulada como 'list' \; mas \, se a lista começa com um símbolo \, a palavra 'list' precisa ser usada!;
#X connect 0 0 1 0;
#X connect 1 0 2 0;
#X connect 1 0 6 0;
#X connect 3 0 1 1;
#X connect 4 0 0 0;
#X connect 4 1 3 0;
#X connect 5 0 4 0;
#X connect 6 0 7 0;
#X connect 7 0 8 0;
#X connect 7 1 9 0;
