#N canvas 855 269 832 598 12;
#X obj 45 96 ==;
#X obj 144 97 >=;
#X obj 353 99 !=;
#X obj 248 99 <;
#X floatatom 17 67 5 0 0 0 - - - 0;
#X floatatom 60 67 5 0 0 0 - - - 0;
#X floatatom 117 69 5 0 0 0 - - - 0;
#X floatatom 160 69 5 0 0 0 - - - 0;
#X floatatom 223 70 5 0 0 0 - - - 0;
#X floatatom 266 70 5 0 0 0 - - - 0;
#X floatatom 325 70 5 0 0 0 - - - 0;
#X floatatom 368 70 5 0 0 0 - - - 0;
#X floatatom 40 133 5 0 0 0 - - - 0;
#X floatatom 138 134 5 0 0 0 - - - 0;
#X floatatom 243 136 5 0 0 0 - - - 0;
#X floatatom 345 135 5 0 0 0 - - - 0;
#X text 21 4 testes para valores: igualdade \, diferença \, menor que e menor ou igual que... \, etc \; lembre-se: o operando da esquerda é alterado para que o resultado apareça!;
#X text 15 174 resolvemos esse problema \, mais uma vez \, com o bang...;
#X obj 191 237 ==;
#X floatatom 130 207 5 0 0 0 - - - 0;
#X floatatom 237 208 5 0 0 0 - - - 0;
#X floatatom 186 261 5 0 0 0 - - - 0;
#X obj 194 207 bng 19 250 50 0 empty empty empty 0 -10 0 12 #fcfcfc #000000 #000000;
#X connect 0 0 12 0;
#X connect 1 0 13 0;
#X connect 2 0 15 0;
#X connect 3 0 14 0;
#X connect 4 0 0 0;
#X connect 5 0 0 1;
#X connect 6 0 1 0;
#X connect 7 0 1 1;
#X connect 8 0 3 0;
#X connect 9 0 3 1;
#X connect 10 0 2 0;
#X connect 11 0 2 1;
#X connect 18 0 21 0;
#X connect 19 0 18 0;
#X connect 20 0 18 1;
#X connect 20 0 22 0;
#X connect 22 0 19 0;
