#N canvas 952 0 958 956 12;
#X text 20 20 route: objeto que permite ordenar vários tipos de dados \; com ele \, podemos alocar o tipo de dado: number \, symbol \, list \, bang \, etc.;
#X msg 27 97 bang;
#X msg 74 97 89;
#X msg 114 97 symbol helpme;
#X msg 226 97 list gello 43 forever;
#X msg 226 124 anything;
#X obj 26 201 print a;
#X obj 26 152 route bang float symbol list;
#X obj 83 201 print b;
#X obj 140 201 print c;
#X obj 197 201 print d;
#X obj 254 201 print e;
#X text 21 250 qualquer coisa que não puder ser alocada é enviada para a saída/outlet da direita (print e).;
#X connect 1 0 7 0;
#X connect 2 0 7 0;
#X connect 3 0 7 0;
#X connect 4 0 7 0;
#X connect 5 0 7 0;
#X connect 7 0 6 0;
#X connect 7 1 8 0;
#X connect 7 2 9 0;
#X connect 7 3 10 0;
#X connect 7 4 11 0;
