#N canvas 920 135 937 811 12;
#X floatatom 62 99 5 0 0 0 - - - 0;
#X obj 73 179 bng 19 250 50 0 empty empty empty 0 -10 0 12 #fcfcfc #000000 #000000;
#X floatatom 127 179 5 0 0 0 - - - 0;
#X obj 87 136 select 10;
#X text 17 14 select: um bang na saída esquerda e um número na direita \; quando o valor do inlet for igual ao argumento passado \, o bang é ativado \; para inlet diferente \, número da saída é alterado. Pode-se substituir o parâmetro por um inlet na entrada direita do select.;
#X floatatom 245 99 5 0 0 0 - - - 0;
#X obj 256 179 bng 19 250 50 0 empty empty empty 0 -10 0 12 #fcfcfc #000000 #000000;
#X floatatom 310 179 5 0 0 0 - - - 0;
#X floatatom 314 100 5 0 0 0 - - - 0;
#X obj 270 136 select;
#X floatatom 63 282 5 0 0 0 - - - 0;
#X obj 146 362 bng 19 250 50 0 empty empty empty 0 -10 0 12 #fcfcfc #000000 #000000;
#X floatatom 77 362 5 0 0 0 - - - 0;
#X obj 88 319 select 10;
#X text 14 223 um número na saída esquerda e um bang na direita \; quando o valor do inlet for diferente do argumento \, o bang é ativado \; para inlet igual \, o número da saída é alterado.;
#X floatatom 271 281 5 0 0 0 - - - 0;
#X obj 354 361 bng 19 250 50 0 empty empty empty 0 -10 0 12 #fcfcfc #000000 #000000;
#X floatatom 285 361 5 0 0 0 - - - 0;
#X floatatom 339 281 5 0 0 0 - - - 0;
#X obj 296 318 select;
#X connect 0 0 3 0;
#X connect 3 0 1 0;
#X connect 3 1 2 0;
#X connect 5 0 9 0;
#X connect 8 0 9 1;
#X connect 9 0 6 0;
#X connect 9 1 7 0;
#X connect 10 0 13 0;
#X connect 13 0 12 0;
#X connect 13 1 11 0;
#X connect 15 0 19 0;
#X connect 18 0 19 1;
#X connect 19 0 17 0;
#X connect 19 1 16 0;
