#N canvas 952 0 958 956 12;
#X obj 48 123 spigot;
#X obj 87 91 tgl 19 0 empty empty empty 0 -10 0 12 #fcfcfc #000000 #000000 0 1;
#X obj 48 158 tgl 19 0 empty empty empty 0 -10 0 12 #fcfcfc #000000 #000000 0 1;
#X obj 48 91 tgl 19 0 empty empty empty 0 -10 0 12 #fcfcfc #000000 #000000 0 1;
#X text 53 11 spigot: funciona como um portão \; o input esquerdo só é permitido passar se o input direito for 1 (True) \; seu funcionamento pode ser visto mais facilmente com o uso do toggle.;
#X obj 215 130 spigot;
#X obj 278 130 tgl 19 0 empty empty empty 0 -10 0 12 #fcfcfc #000000 #000000 0 1;
#X msg 158 92 bang;
#X msg 204 92 triste;
#X msg 263 92 corda;
#X msg 314 92 mi;
#X msg 352 92 cavaquinho;
#X obj 215 161 print;
#X connect 0 0 2 0;
#X connect 1 0 0 1;
#X connect 3 0 0 0;
#X connect 5 0 12 0;
#X connect 6 0 5 1;
#X connect 7 0 5 0;
#X connect 8 0 5 0;
#X connect 9 0 5 0;
#X connect 10 0 5 0;
#X connect 11 0 5 0;
