#N canvas -8 0 1019 956 12;
#X obj 84 106 trigger bang anything;
#X msg 23 111 socoro;
#X obj 86 136 print 1;
#X obj 182 136 print 2;
#X msg 275 109 socoro;
#X obj 336 139 print 1;
#X obj 432 139 print 2;
#X obj 334 109 trigger anything bang;
#X floatatom 81 304 5 0 0 0 - - - 0;
#X floatatom 264 340 5 0 0 0 - - - 0;
#X floatatom 152 341 5 0 0 0 - - - 0;
#X obj 236 366 +;
#X floatatom 179 405 5 0 0 0 - - - 0;
#X msg 215 341 3;
#X obj 184 379 *;
#X msg 191 191 bang;
#X obj 292 256 print 1;
#X obj 230 256 print 2;
#X obj 164 255 print 3;
#X obj 142 312 t float bang float;
#X obj 189 221 t bang bang bang;
#X obj 37 217 t list float;
#X floatatom 94 248 5 0 0 0 - - - 0;
#X listbox 24 248 7 0 0 0 - - - 0;
#X msg 37 190 3 2 1;
#X text 58 5 trigger: emite os dados especificados da direita para a esquerda \; 'float' \, 'bang' \, 'symbol' \, 'list' \, 'anything' e 'pointer' são seus parâmetros;
#X text 26 79 exibe 'socoro' \, depois 'bang';
#X text 276 81 exibe 'bang' \, depois 'socoro';
#X obj 398 236 t b b;
#X msg 398 205 bang;
#X msg 433 266 5;
#X msg 380 266 3;
#X obj 379 292 * 2;
#X obj 434 292 * 2;
#X floatatom 374 322 5 0 0 0 - - - 0;
#X floatatom 432 322 5 0 0 0 - - - 0;
#X obj 406 350 +;
#X floatatom 401 377 5 0 0 0 - - - 0;
#X connect 0 0 2 0;
#X connect 0 1 3 0;
#X connect 1 0 0 0;
#X connect 4 0 7 0;
#X connect 7 0 5 0;
#X connect 7 1 6 0;
#X connect 8 0 19 0;
#X connect 9 0 11 1;
#X connect 10 0 14 0;
#X connect 11 0 14 1;
#X connect 13 0 11 0;
#X connect 14 0 12 0;
#X connect 15 0 20 0;
#X connect 19 0 10 0;
#X connect 19 1 13 0;
#X connect 19 2 9 0;
#X connect 20 0 18 0;
#X connect 20 1 17 0;
#X connect 20 2 16 0;
#X connect 21 0 23 0;
#X connect 21 1 22 0;
#X connect 24 0 21 0;
#X connect 28 0 31 0;
#X connect 28 1 30 0;
#X connect 29 0 28 0;
#X connect 30 0 33 0;
#X connect 31 0 32 0;
#X connect 32 0 34 0;
#X connect 33 0 35 0;
#X connect 34 0 36 0;
#X connect 35 0 36 1;
#X connect 36 0 37 0;
