#N canvas 952 0 958 956 12;
#X msg 30 65 number \$1;
#X msg 30 40 34;
#X obj 30 89 print;
#X text 154 18 Variáveis podem ser integradas ao conteúdo de uma mensagem. Isso é feito de forma similar como acontece em 'expr' \, mas as variáveis sãoa chamadas '\$1 \, \$2 \, ' etc. O uso de muitas variáveis não cria o número correspondente de inlets \, mas apenas um é usado e os números são postos em uma lista;
#X obj 32 186 print;
#X msg 32 162 number \$1 \$2 \$3;
#X msg 32 137 34 35 36;
#X obj 177 186 print;
#X msg 177 137 symbol cuscuz;
#X msg 177 162 name \$1;
#X text 300 150 símbolos precisam ser identificados com a palavra 'symbol'.;
#X obj 31 280 print;
#X msg 31 256 name \$1 \$2 \$3;
#X msg 31 231 list socoro meudeus ajudeme;
#X text 292 236 se o primeiro item da lista é um símbolo \, precisamos identificar o objeto com 'list'.;
#X connect 0 0 2 0;
#X connect 1 0 0 0;
#X connect 5 0 4 0;
#X connect 6 0 5 0;
#X connect 8 0 9 0;
#X connect 9 0 7 0;
#X connect 12 0 11 0;
#X connect 13 0 12 0;
