#N canvas 847 198 856 625 12;
#X msg 20 101 open test.wav;
#X msg 20 124 start;
#X msg 20 148 stop;
#X text 12 13 writesf~: salva um arquivo WAV \; indicamos o nome do arquivo que será 'aberto' e usamos duas mensagens \, start e stop \, para indicar quando começar e parar a gravação;
#X obj 20 195 writesf~ 2;
#X obj 20 172 adc~;
#X msg 132 101 bang;
#X obj 132 125 t b b;
#X msg 132 149 start;
#X msg 182 149 open test.wav;
#X obj 131 196 writesf~ 2;
#X obj 131 173 adc~;
#X msg 269 100 open test.wav \, start;
#X obj 301 196 writesf~ 2;
#X obj 301 173 adc~;
#X text 132 234 podemos ativar as duas mensagens usando trigger ou uma só mensagem...;
#X connect 0 0 4 0;
#X connect 1 0 4 0;
#X connect 2 0 4 0;
#X connect 2 0 5 0;
#X connect 5 0 4 0;
#X connect 5 1 4 1;
#X connect 6 0 7 0;
#X connect 7 0 8 0;
#X connect 7 1 9 0;
#X connect 8 0 10 0;
#X connect 9 0 10 0;
#X connect 11 0 10 0;
#X connect 11 1 10 1;
#X connect 12 0 14 0;
#X connect 14 0 13 0;
#X connect 14 1 13 1;
