#N canvas 96 96 1920 966 12;
#X floatatom 218 43 5 0 0 0 - - - 0;
#X obj 228 147 dac~;
#X obj 218 69 osc~ 440;
#X obj 237 94 *~;
#X obj 287 12 vsl 19 162 0 1 0 0 empty empty empty 0 -9 0 12 #fcfcfc #000000 #000000 0 1;
#X floatatom 456 32 5 0 0 0 - - - 0;
#X floatatom 415 94 5 0 0 0 - - - 0;
#X floatatom 493 94 5 0 0 0 - - - 0;
#X obj 505 196 print unselected;
#X obj 433 134 select 300;
#X obj 436 62 moses 350;
#X obj 516 170 bng 19 250 50 0 empty empty empty 0 -10 0 12 #fcfcfc #000000 #000000;
#X floatatom 419 175 5 0 0 0 - - - 0;
#X connect 0 0 2 0;
#X connect 2 0 3 0;
#X connect 3 0 1 0;
#X connect 3 0 1 1;
#X connect 4 0 3 1;
#X connect 5 0 10 0;
#X connect 6 0 9 0;
#X connect 7 0 9 0;
#X connect 9 0 12 0;
#X connect 9 1 11 0;
#X connect 10 0 6 0;
#X connect 10 1 7 0;
#X connect 11 0 8 0;
