#N canvas 242 203 1920 966 12;
#X floatatom 467 34 5 0 0 0 - - - 0;
#X msg 415 34 bang;
#X obj 437 101 bng 19 250 50 0 empty empty empty 0 -10 0 12 #fcfcfc #000000 #000000;
#X obj 432 67 metro 1000;
#X floatatom 420 171 5 0 0 0 - - - 0;
#X floatatom 336 172 5 0 0 0 - - - 0;
#X obj 382 210 +;
#X floatatom 379 238 5 0 0 0 - - - 0;
#X obj 386 172 bng 19 250 50 0 empty empty empty 0 -10 0 12 #fcfcfc #000000 #000000;
#X floatatom 347 315 5 0 0 0 - - - 0;
#X floatatom 417 315 5 0 0 0 - - - 0;
#X text 544 67 metro gera bangs em intervalos regulares;
#X text 542 142 random cria valores aleatórios;
#X text 542 205 realizamos a soma do número gerado com 440 para que o som da saída não seja tão grave;
#X text 543 274 usamos moses para dividir números e essa separação de valores é feita com base no número 600;
#X obj 408 141 random 500;
#X obj 366 278 moses 500;
#X obj 349 356 osc~;
#X obj 419 355 osc~;
#X obj 391 400 dac~;
#X text 544 357 jogamos os valores obtidos do moses em dois objetos osc~ e depois seus sinais de saída vão para o objeto dac~;
#X connect 0 0 3 1;
#X connect 1 0 3 0;
#X connect 2 0 15 0;
#X connect 3 0 2 0;
#X connect 3 0 8 0;
#X connect 4 0 8 0;
#X connect 4 0 6 1;
#X connect 5 0 6 0;
#X connect 6 0 7 0;
#X connect 7 0 16 0;
#X connect 8 0 5 0;
#X connect 9 0 17 0;
#X connect 10 0 18 0;
#X connect 15 0 4 0;
#X connect 16 0 9 0;
#X connect 16 1 10 0;
#X connect 17 0 19 0;
#X connect 18 0 19 1;
