#N canvas 2870 181 1920 966 12;
#X obj 77 96 metro 4000;
#X msg 66 66 bang;
#X floatatom 122 66 5 0 0 0 - - - 0;
#X obj 102 123 bng 19 250 50 0 empty empty empty 0 -10 0 12 #fcfcfc #000000 #000000;
#X obj 74 363 select 1 2 3 4;
#X obj 74 404 bng 19 250 50 0 empty empty empty 0 -10 0 12 #fcfcfc #000000 #000000;
#X obj 102 404 bng 19 250 50 0 empty empty empty 0 -10 0 12 #fcfcfc #000000 #000000;
#X obj 130 404 bng 19 250 50 0 empty empty empty 0 -10 0 12 #fcfcfc #000000 #000000;
#X obj 157 404 bng 19 250 50 0 empty empty empty 0 -10 0 12 #fcfcfc #000000 #000000;
#X obj 105 205 + 1;
#X floatatom 162 181 5 0 0 0 - - - 0;
#X obj 105 179 f;
#X floatatom 99 234 5 0 0 0 - - - 0;
#X msg 98 37 stop;
#X obj 96 273 moses 4;
#X floatatom 78 313 5 0 0 0 - - - 0;
#X floatatom 137 313 5 0 0 0 - - - 0;
#X obj 185 313 == 4;
#X obj 226 313 - 1;
#X text 263 299 quando o contador de bangs está em 4 \, fazemos um teste de igualdade (== 4) cujo resultado é True (1) \; esse resultado é então decrementado em 1 e o contador é resetado para começar a contar do 0;
#X text 266 392 a ideia é criar um sequenciador de ritmo cujo compasso é 4 em 4 Ao chegar em 4 \, o contador reinicia e a contagem recomeça.;
#X text 264 256 o moses é usado para separar valores a partir do valor 4;
#X text 263 181 usamos um contador de bangs para contar Quando um bang é ativado \, o contador é incrementado.;
#X text 262 66 uso do metro para gerar bangs em intervalos regulares.;
#X connect 0 0 3 0;
#X connect 1 0 0 0;
#X connect 2 0 0 1;
#X connect 3 0 11 0;
#X connect 4 0 5 0;
#X connect 4 1 6 0;
#X connect 4 2 7 0;
#X connect 4 3 8 0;
#X connect 9 0 12 0;
#X connect 10 0 11 1;
#X connect 11 0 9 0;
#X connect 12 0 10 0;
#X connect 12 0 14 0;
#X connect 13 0 0 0;
#X connect 14 0 15 0;
#X connect 14 1 16 0;
#X connect 15 0 10 0;
#X connect 15 0 4 0;
#X connect 16 0 10 0;
#X connect 16 0 4 0;
#X connect 16 0 17 0;
#X connect 17 0 18 0;
#X connect 18 0 10 0;
