#N canvas 128 128 1920 966 12;
#X msg 108 82 bang;
#X msg 150 82 stop;
#X obj 108 152 random 400;
#X floatatom 108 182 5 0 0 0 - - - 0;
#X obj 108 214 f;
#X floatatom 108 263 5 0 0 0 - - - 0;
#X text 24 37 geração de valores aleatórios com metro \, random e expr \;;
#X text 558 46 seleção de uma das opções:;
#X floatatom 457 109 5 0 0 0 - - - 0;
#X obj 440 143 select 1 2 3 4;
#X obj 554 174 print no optio disponible;
#X msg 409 174 400;
#X msg 443 174 500;
#X msg 478 174 600;
#X floatatom 357 331 5 0 0 0 - - - 0;
#X obj 357 358 phasor~;
#X obj 367 418 dac~;
#X obj 370 385 *~;
#X obj 434 281 vsl 19 162 0 1 0 0 empty empty empty 0 -9 0 12 #fcfcfc #000000 #000000 0 1;
#X obj 108 120 metro 5000;
#X floatatom 381 303 5 0 0 0 - - - 0;
#X msg 514 174 700;
#X obj 344 278 moses;
#X obj 108 239 expr ($f1 * 1.5) + 150;
#X text 493 307 selecionamos uma das 4 opções pelo number acima do select \; o select irá selecionar qual dos valores é a saída a partir de cada entrada (1 \, 2 \, 3 \, 4) e esse valor será levado ao moses. A ideia é que sejam selecionados valores menores que o número escolhido. Assim \, decidimos a partir de qual frequência será a saída.;
#X text 559 65 1- freq. menor que 400 2- freq. menor que 500 3- freq. menor que 600 4- freq. menor que 700 Outros valores não são aceitos...;
#X connect 0 0 19 0;
#X connect 1 0 19 0;
#X connect 2 0 3 0;
#X connect 3 0 4 1;
#X connect 4 0 23 0;
#X connect 5 0 22 0;
#X connect 8 0 9 0;
#X connect 9 0 11 0;
#X connect 9 1 12 0;
#X connect 9 2 13 0;
#X connect 9 3 21 0;
#X connect 9 4 10 0;
#X connect 11 0 22 1;
#X connect 12 0 22 1;
#X connect 13 0 22 1;
#X connect 14 0 15 0;
#X connect 15 0 17 0;
#X connect 17 0 16 0;
#X connect 17 0 16 1;
#X connect 18 0 17 1;
#X connect 19 0 2 0;
#X connect 19 0 4 0;
#X connect 21 0 22 1;
#X connect 22 0 14 0;
#X connect 22 1 20 0;
#X connect 23 0 5 0;
